# xmcd
#
# Track frame offsets: 
#        150
#        15664
#        30806
#        49830
#        65103
#        75085
#        88025
#        100252
#        116181
#        136237
#        150525
#        157843
#
# Disc length: 4256 seconds
#
# Revision: 0
# Processed by: cddbd v1.5.2PL0 Copyright (c) Steve Scherf et al.
# Submitted via: ExactAudioCopy v1.0b4
#
DISCID=85109e0c
DTITLE=Chicken Shack - 100 Ton Chicken (LP)
DYEAR=1983
DGENRE=Blues
TTITLE0=The Road Of Love
TTITLE1=Look Ma I' m Crying
TTITLE2=Look Ma I' m Crying
TTITLE3=Reconsider Baby
TTITLE4=Weekend Love
TTITLE5=Midnight Hour
TTITLE6=Tears In The Wind
TTITLE7=Horse and Cart
TTITLE8=The Way It Is
TTITLE9=Still Worried About My Woman
TTITLE10=Anji
TTITLE11=100 Ton Chicken (gesamte LP)
EXTD=
EXTT0=
EXTT1=
EXTT2=
EXTT3=
EXTT4=
EXTT5=
EXTT6=
EXTT7=
EXTT8=
EXTT9=
EXTT10=
EXTT11=
PLAYORDER=
